solid Shaker
facet normal -9.552721439381188e-19 -0.9999999999999999 1.4900975147340202e-08
  outer loop
    vertex 1589.553807561694 -632.1999999277418 4.849250035525002
    vertex 1586.978430246792 -632.1999999616248 2.5753773149019876
    vertex 1589.553807561694 -632.2000000000004 2.485941177067431e-16
  endloop
endfacet
facet normal -9.552721439381188e-19 -0.9999999999999999 1.4900975147340202e-08
  outer loop
    vertex 1586.605101905781 -632.1999999658933 2.2889124034668353
    vertex 1589.553807561694 -632.2000000000004 2.485941177067431e-16
    vertex 1586.978430246792 -632.1999999616248 2.5753773149019876
  endloop
endfacet
facet normal -9.552721439381188e-19 -0.9999999999999999 1.4900975147340202e-08
  outer loop
    vertex 1581.8538075616939 -632.2000000000004 2.485941177067431e-16
    vertex 1589.553807561694 -632.2000000000004 2.485941177067431e-16
    vertex 1586.605101905781 -632.1999999658933 2.2889124034668353
  endloop
endfacet
facet normal -9.552721439381188e-19 -0.9999999999999999 1.4900975147340202e-08
  outer loop
    vertex 1589.4426369401542 -632.1999999151591 5.6936747413002795
    vertex 1586.978430246792 -632.1999999616248 2.5753773149019876
    vertex 1589.553807561694 -632.1999999277418 4.849250035525002
  endloop
endfacet
facet normal -9.552721439381188e-19 -0.9999999999999999 1.4900975147340202e-08
  outer loop
    vertex 1587.264895158227 -632.1999999560618 2.948705655913015
    vertex 1586.978430246792 -632.1999999616248 2.5753773149019876
    vertex 1589.4426369401542 -632.1999999151591 5.6936747413002795
  endloop
endfacet
facet normal -9.552721439381188e-19 -0.9999999999999999 1.4900975147340202e-08
  outer loop
    vertex 1589.1748884840495 -632.1999999055271 6.340076695332724
    vertex 1587.264895158227 -632.1999999560618 2.948705655913015
    vertex 1589.4426369401542 -632.1999999151591 5.6936747413002795
  endloop
endfacet
facet normal -9.552721439381188e-19 -0.9999999999999999 1.4900975147340202e-08
  outer loop
    vertex 1587.4449745297777 -632.1999999495837 3.3834557170142636
    vertex 1587.264895158227 -632.1999999560618 2.948705655913015
    vertex 1589.1748884840495 -632.1999999055271 6.340076695332724
  endloop
endfacet
facet normal -9.552721439381188e-19 -0.9999999999999999 1.4900975147340202e-08
  outer loop
    vertex 1588.7489621988539 -632.1999998972559 6.8951546371597
    vertex 1587.4449745297777 -632.1999999495837 3.3834557170142636
    vertex 1589.1748884840495 -632.1999999055271 6.340076695332724
  endloop
endfacet
facet normal -9.552721439381188e-19 -0.9999999999999999 1.4900975147340202e-08
  outer loop
    vertex 1588.1938842570269 -632.1999998909091 7.3210809223553355
    vertex 1587.4449745297777 -632.1999999495837 3.3834557170142636
    vertex 1588.7489621988539 -632.1999998972559 6.8951546371597
  endloop
endfacet
facet normal -9.552721439381188e-19 -0.9999999999999999 1.4900975147340202e-08
  outer loop
    vertex 1587.5063962498682 -632.1999999426316 3.8500000000000263
    vertex 1587.4449745297777 -632.1999999495837 3.3834557170142636
    vertex 1588.1938842570269 -632.1999998909091 7.3210809223553355
  endloop
endfacet
facet normal -9.552721439381188e-19 -0.9999999999999999 1.4900975147340202e-08
  outer loop
    vertex 1587.5474823029942 -632.1999998869195 7.5888293784600345
    vertex 1587.5063962498682 -632.1999999426316 3.8500000000000263
    vertex 1588.1938842570269 -632.1999998909091 7.3210809223553355
  endloop
endfacet
facet normal -9.552721439381188e-19 -0.9999999999999999 1.4900975147340202e-08
  outer loop
    vertex 1586.1703518446798 -632.1999999685768 2.1088330319160447
    vertex 1581.8538075616939 -632.2000000000004 2.485941177067431e-16
    vertex 1586.605101905781 -632.1999999658933 2.2889124034668353
  endloop
endfacet
facet normal -9.552721439381188e-19 -0.9999999999999999 1.4900975147340202e-08
  outer loop
    vertex 1585.703807561694 -632.199999969492 2.0474113118260036
    vertex 1581.8538075616939 -632.2000000000004 2.485941177067431e-16
    vertex 1586.1703518446798 -632.1999999685768 2.1088330319160447
  endloop
endfacet
facet normal -9.552721439381188e-19 -0.9999999999999999 1.4900975147340202e-08
  outer loop
    vertex 1585.237263278708 -632.1999999685768 2.1088330319160447
    vertex 1581.8538075616939 -632.2000000000004 2.485941177067431e-16
    vertex 1585.703807561694 -632.199999969492 2.0474113118260036
  endloop
endfacet
facet normal -9.552721439381188e-19 -0.9999999999999999 1.4900975147340202e-08
  outer loop
    vertex 1584.802513217607 -632.1999999658933 2.2889124034668353
    vertex 1581.8538075616939 -632.2000000000004 2.485941177067431e-16
    vertex 1585.237263278708 -632.1999999685768 2.1088330319160447
  endloop
endfacet
facet normal -9.552721439381188e-19 -0.9999999999999999 1.4900975147340202e-08
  outer loop
    vertex 1584.4291848765959 -632.1999999616248 2.5753773149019876
    vertex 1581.8538075616939 -632.2000000000004 2.485941177067431e-16
    vertex 1584.802513217607 -632.1999999658933 2.2889124034668353
  endloop
endfacet
facet normal -9.552721439381188e-19 -0.9999999999999999 1.4900975147340202e-08
  outer loop
    vertex 1584.1427199651607 -632.1999999560618 2.9487056559128346
    vertex 1581.8538075616939 -632.2000000000004 2.485941177067431e-16
    vertex 1584.4291848765959 -632.1999999616248 2.5753773149019876
  endloop
endfacet
facet normal -9.552721439381188e-19 -0.9999999999999999 1.4900975147340202e-08
  outer loop
    vertex 1583.96264059361 -632.1999999495837 3.3834557170142636
    vertex 1581.8538075616939 -632.2000000000004 2.485941177067431e-16
    vertex 1584.1427199651607 -632.1999999560618 2.9487056559128346
  endloop
endfacet
facet normal -9.552721439381188e-19 -0.9999999999999999 1.4900975147340202e-08
  outer loop
    vertex 1583.9012188735198 -632.1999999426316 3.8500000000000263
    vertex 1581.8538075616939 -632.2000000000004 2.485941177067431e-16
    vertex 1583.96264059361 -632.1999999495837 3.3834557170142636
  endloop
endfacet
facet normal -9.552721439381188e-19 -0.9999999999999999 1.4900975147340202e-08
  outer loop
    vertex 1586.7030575972183 -632.1999998852629 7.700000000000053
    vertex 1587.4449745297777 -632.1999999356798 4.316544282985789
    vertex 1587.5474823029942 -632.1999998869195 7.5888293784600345
  endloop
endfacet
facet normal -9.552721439381188e-19 -0.9999999999999999 1.4900975147340202e-08
  outer loop
    vertex 1587.5063962498682 -632.1999999426316 3.8500000000000263
    vertex 1587.5474823029942 -632.1999998869195 7.5888293784600345
    vertex 1587.4449745297777 -632.1999999356798 4.316544282985789
  endloop
endfacet
facet normal -9.552721439381188e-19 -0.9999999999999999 1.4900975147340202e-08
  outer loop
    vertex 1587.264895158227 -632.1999999292015 4.751294344087038
    vertex 1587.4449745297777 -632.1999999356798 4.316544282985789
    vertex 1586.7030575972183 -632.1999998852629 7.700000000000053
  endloop
endfacet
facet normal -9.552721439381188e-19 -0.9999999999999999 1.4900975147340202e-08
  outer loop
    vertex 1586.978430246792 -632.1999999236385 5.124622685097885
    vertex 1587.264895158227 -632.1999999292015 4.751294344087038
    vertex 1586.7030575972183 -632.1999998852629 7.700000000000053
  endloop
endfacet
facet normal -9.552721439381188e-19 -0.9999999999999999 1.4900975147340202e-08
  outer loop
    vertex 1586.6051019057809 -632.1999999193699 5.411087596533218
    vertex 1586.978430246792 -632.1999999236385 5.124622685097885
    vertex 1586.7030575972183 -632.1999998852629 7.700000000000053
  endloop
endfacet
facet normal -9.552721439381188e-19 -0.9999999999999999 1.4900975147340202e-08
  outer loop
    vertex 1581.8538075616939 -632.1999998852629 7.700000000000053
    vertex 1586.6051019057809 -632.1999999193699 5.411087596533218
    vertex 1586.7030575972183 -632.1999998852629 7.700000000000053
  endloop
endfacet
facet normal -9.552721439381188e-19 -0.9999999999999999 1.4900975147340202e-08
  outer loop
    vertex 1586.1703518446798 -632.1999999166866 5.591166968083828
    vertex 1586.6051019057809 -632.1999999193699 5.411087596533218
    vertex 1581.8538075616939 -632.1999998852629 7.700000000000053
  endloop
endfacet
facet normal -9.552721439381188e-19 -0.9999999999999999 1.4900975147340202e-08
  outer loop
    vertex 1585.703807561694 -632.1999999157713 5.652588688174049
    vertex 1586.1703518446798 -632.1999999166866 5.591166968083828
    vertex 1581.8538075616939 -632.1999998852629 7.700000000000053
  endloop
endfacet
facet normal -9.552721439381188e-19 -0.9999999999999999 1.4900975147340202e-08
  outer loop
    vertex 1585.237263278708 -632.1999999166866 5.591166968083828
    vertex 1585.703807561694 -632.1999999157713 5.652588688174049
    vertex 1581.8538075616939 -632.1999998852629 7.700000000000053
  endloop
endfacet
facet normal -9.552721439381188e-19 -0.9999999999999999 1.4900975147340202e-08
  outer loop
    vertex 1584.802513217607 -632.1999999193699 5.411087596533218
    vertex 1585.237263278708 -632.1999999166866 5.591166968083828
    vertex 1581.8538075616939 -632.1999998852629 7.700000000000053
  endloop
endfacet
facet normal -9.552721439381188e-19 -0.9999999999999999 1.4900975147340202e-08
  outer loop
    vertex 1584.4291848765959 -632.1999999236385 5.124622685098065
    vertex 1584.802513217607 -632.1999999193699 5.411087596533218
    vertex 1581.8538075616939 -632.1999998852629 7.700000000000053
  endloop
endfacet
facet normal -9.552721439381188e-19 -0.9999999999999999 1.4900975147340202e-08
  outer loop
    vertex 1584.1427199651607 -632.1999999292015 4.751294344087038
    vertex 1584.4291848765959 -632.1999999236385 5.124622685098065
    vertex 1581.8538075616939 -632.1999998852629 7.700000000000053
  endloop
endfacet
facet normal -9.552721439381188e-19 -0.9999999999999999 1.4900975147340202e-08
  outer loop
    vertex 1583.96264059361 -632.1999999356798 4.316544282985789
    vertex 1584.1427199651607 -632.1999999292015 4.751294344087038
    vertex 1581.8538075616939 -632.1999998852629 7.700000000000053
  endloop
endfacet
facet normal -9.552721439381188e-19 -0.9999999999999999 1.4900975147340202e-08
  outer loop
    vertex 1583.9012188735198 -632.1999999426316 3.8500000000000263
    vertex 1583.96264059361 -632.1999999356798 4.316544282985789
    vertex 1581.8538075616939 -632.1999998852629 7.700000000000053
  endloop
endfacet
facet normal -9.552721439381188e-19 -0.9999999999999999 1.4900975147340202e-08
  outer loop
    vertex 1581.8538075616939 -632.2000000000004 2.485941177067431e-16
    vertex 1583.9012188735198 -632.1999999426316 3.8500000000000263
    vertex 1581.8538075616939 -632.1999998852629 7.700000000000053
  endloop
endfacet
facet normal -1.1956173094755958e-30 0.9999999999999999 -1.4900975189857668e-08
  outer loop
    vertex 1587.5063962498682 -582.22672663499 3.849999255349701
    vertex 1587.4449745297777 -582.226726628038 4.316543538335464
    vertex 1587.5474823029942 -582.2267265792777 7.58882863380971
  endloop
endfacet
facet normal -1.1956173094755958e-30 0.9999999999999999 -1.4900975189857668e-08
  outer loop
    vertex 1586.7030575972183 -582.2267265776212 7.699999255349727
    vertex 1587.5474823029942 -582.2267265792777 7.58882863380971
    vertex 1587.4449745297777 -582.226726628038 4.316543538335464
  endloop
endfacet
facet normal -1.1956173094755958e-30 0.9999999999999999 -1.4900975189857668e-08
  outer loop
    vertex 1587.264895158227 -582.2267266215598 4.751293599436713
    vertex 1586.7030575972183 -582.2267265776212 7.699999255349727
    vertex 1587.4449745297777 -582.226726628038 4.316543538335464
  endloop
endfacet
facet normal -1.1956173094755958e-30 0.9999999999999999 -1.4900975189857668e-08
  outer loop
    vertex 1586.978430246792 -582.2267266159968 5.12462194044774
    vertex 1586.7030575972183 -582.2267265776212 7.699999255349727
    vertex 1587.264895158227 -582.2267266215598 4.751293599436713
  endloop
endfacet
facet normal -1.1956173094755958e-30 0.9999999999999999 -1.4900975189857668e-08
  outer loop
    vertex 1586.6051019057809 -582.2267266117282 5.411086851882892
    vertex 1586.7030575972183 -582.2267265776212 7.699999255349727
    vertex 1586.978430246792 -582.2267266159968 5.12462194044774
  endloop
endfacet
facet normal -1.1956173094755958e-30 0.9999999999999999 -1.4900975189857668e-08
  outer loop
    vertex 1581.8538075616939 -582.2267265776212 7.699999255349727
    vertex 1586.7030575972183 -582.2267265776212 7.699999255349727
    vertex 1586.6051019057809 -582.2267266117282 5.411086851882892
  endloop
endfacet
facet normal -1.1956173094755958e-30 0.9999999999999999 -1.4900975189857668e-08
  outer loop
    vertex 1586.1703518446798 -582.2267266090448 5.591166223433502
    vertex 1581.8538075616939 -582.2267265776212 7.699999255349727
    vertex 1586.6051019057809 -582.2267266117282 5.411086851882892
  endloop
endfacet
facet normal -1.1956173094755958e-30 0.9999999999999999 -1.4900975189857668e-08
  outer loop
    vertex 1585.703807561694 -582.2267266081296 5.6525879435237245
    vertex 1581.8538075616939 -582.2267265776212 7.699999255349727
    vertex 1586.1703518446798 -582.2267266090448 5.591166223433502
  endloop
endfacet
facet normal -1.1956173094755958e-30 0.9999999999999999 -1.4900975189857668e-08
  outer loop
    vertex 1585.237263278708 -582.2267266090448 5.591166223433502
    vertex 1581.8538075616939 -582.2267265776212 7.699999255349727
    vertex 1585.703807561694 -582.2267266081296 5.6525879435237245
  endloop
endfacet
facet normal -1.1956173094755958e-30 0.9999999999999999 -1.4900975189857668e-08
  outer loop
    vertex 1584.802513217607 -582.2267266117282 5.411086851882892
    vertex 1581.8538075616939 -582.2267265776212 7.699999255349727
    vertex 1585.237263278708 -582.2267266090448 5.591166223433502
  endloop
endfacet
facet normal -1.1956173094755958e-30 0.9999999999999999 -1.4900975189857668e-08
  outer loop
    vertex 1584.4291848765959 -582.2267266159968 5.12462194044774
    vertex 1581.8538075616939 -582.2267265776212 7.699999255349727
    vertex 1584.802513217607 -582.2267266117282 5.411086851882892
  endloop
endfacet
facet normal -1.1956173094755958e-30 0.9999999999999999 -1.4900975189857668e-08
  outer loop
    vertex 1584.1427199651607 -582.2267266215598 4.751293599436713
    vertex 1581.8538075616939 -582.2267265776212 7.699999255349727
    vertex 1584.4291848765959 -582.2267266159968 5.12462194044774
  endloop
endfacet
facet normal -1.1956173094755958e-30 0.9999999999999999 -1.4900975189857668e-08
  outer loop
    vertex 1583.96264059361 -582.226726628038 4.316543538335464
    vertex 1581.8538075616939 -582.2267265776212 7.699999255349727
    vertex 1584.1427199651607 -582.2267266215598 4.751293599436713
  endloop
endfacet
facet normal -1.1956173094755958e-30 0.9999999999999999 -1.4900975189857668e-08
  outer loop
    vertex 1583.9012188735198 -582.22672663499 3.849999255349701
    vertex 1581.8538075616939 -582.2267265776212 7.699999255349727
    vertex 1583.96264059361 -582.226726628038 4.316543538335464
  endloop
endfacet
facet normal -1.1956173094755958e-30 0.9999999999999999 -1.4900975189857668e-08
  outer loop
    vertex 1589.553807561694 -582.2267266201002 4.849249290874858
    vertex 1589.553807561694 -582.2267266923587 -7.446503249866966e-07
    vertex 1589.4426369401542 -582.2267266075174 5.693673996650135
  endloop
endfacet
facet normal -1.1956173094755958e-30 0.9999999999999999 -1.4900975189857668e-08
  outer loop
    vertex 1586.978430246792 -582.2267266539831 2.5753765702516622
    vertex 1589.4426369401542 -582.2267266075174 5.693673996650135
    vertex 1589.553807561694 -582.2267266923587 -7.446503249866966e-07
  endloop
endfacet
facet normal -1.1956173094755958e-30 0.9999999999999999 -1.4900975189857668e-08
  outer loop
    vertex 1586.605101905781 -582.2267266582517 2.28891165881651
    vertex 1586.978430246792 -582.2267266539831 2.5753765702516622
    vertex 1589.553807561694 -582.2267266923587 -7.446503249866966e-07
  endloop
endfacet
facet normal -1.1956173094755958e-30 0.9999999999999999 -1.4900975189857668e-08
  outer loop
    vertex 1581.8538075616939 -582.2267266923587 -7.446503249866966e-07
    vertex 1586.605101905781 -582.2267266582517 2.28891165881651
    vertex 1589.553807561694 -582.2267266923587 -7.446503249866966e-07
  endloop
endfacet
facet normal -1.1956173094755958e-30 0.9999999999999999 -1.4900975189857668e-08
  outer loop
    vertex 1587.264895158227 -582.2267266484201 2.94870491126269
    vertex 1589.4426369401542 -582.2267266075174 5.693673996650135
    vertex 1586.978430246792 -582.2267266539831 2.5753765702516622
  endloop
endfacet
facet normal -1.1956173094755958e-30 0.9999999999999999 -1.4900975189857668e-08
  outer loop
    vertex 1589.1748884840495 -582.2267265978854 6.3400759506825795
    vertex 1589.4426369401542 -582.2267266075174 5.693673996650135
    vertex 1587.264895158227 -582.2267266484201 2.94870491126269
  endloop
endfacet
facet normal -1.1956173094755958e-30 0.9999999999999999 -1.4900975189857668e-08
  outer loop
    vertex 1587.4449745297777 -582.2267266419419 3.3834549723639387
    vertex 1589.1748884840495 -582.2267265978854 6.3400759506825795
    vertex 1587.264895158227 -582.2267266484201 2.94870491126269
  endloop
endfacet
facet normal -1.1956173094755958e-30 0.9999999999999999 -1.4900975189857668e-08
  outer loop
    vertex 1588.7489621988539 -582.2267265896141 6.895153892509375
    vertex 1589.1748884840495 -582.2267265978854 6.3400759506825795
    vertex 1587.4449745297777 -582.2267266419419 3.3834549723639387
  endloop
endfacet
facet normal -1.1956173094755958e-30 0.9999999999999999 -1.4900975189857668e-08
  outer loop
    vertex 1588.1938842570269 -582.2267265832675 7.32108017770501
    vertex 1588.7489621988539 -582.2267265896141 6.895153892509375
    vertex 1587.4449745297777 -582.2267266419419 3.3834549723639387
  endloop
endfacet
facet normal -1.1956173094755958e-30 0.9999999999999999 -1.4900975189857668e-08
  outer loop
    vertex 1587.5063962498682 -582.22672663499 3.849999255349701
    vertex 1588.1938842570269 -582.2267265832675 7.32108017770501
    vertex 1587.4449745297777 -582.2267266419419 3.3834549723639387
  endloop
endfacet
facet normal -1.1956173094755958e-30 0.9999999999999999 -1.4900975189857668e-08
  outer loop
    vertex 1587.5474823029942 -582.2267265792777 7.58882863380971
    vertex 1588.1938842570269 -582.2267265832675 7.32108017770501
    vertex 1587.5063962498682 -582.22672663499 3.849999255349701
  endloop
endfacet
facet normal -1.1956173094755958e-30 0.9999999999999999 -1.4900975189857668e-08
  outer loop
    vertex 1586.1703518446798 -582.226726660935 2.1088322872659
    vertex 1586.605101905781 -582.2267266582517 2.28891165881651
    vertex 1581.8538075616939 -582.2267266923587 -7.446503249866966e-07
  endloop
endfacet
facet normal -1.1956173094755958e-30 0.9999999999999999 -1.4900975189857668e-08
  outer loop
    vertex 1585.703807561694 -582.2267266618503 2.047410567175678
    vertex 1586.1703518446798 -582.226726660935 2.1088322872659
    vertex 1581.8538075616939 -582.2267266923587 -7.446503249866966e-07
  endloop
endfacet
facet normal -1.1956173094755958e-30 0.9999999999999999 -1.4900975189857668e-08
  outer loop
    vertex 1585.237263278708 -582.226726660935 2.1088322872659
    vertex 1585.703807561694 -582.2267266618503 2.047410567175678
    vertex 1581.8538075616939 -582.2267266923587 -7.446503249866966e-07
  endloop
endfacet
facet normal -1.1956173094755958e-30 0.9999999999999999 -1.4900975189857668e-08
  outer loop
    vertex 1584.802513217607 -582.2267266582517 2.28891165881651
    vertex 1585.237263278708 -582.226726660935 2.1088322872659
    vertex 1581.8538075616939 -582.2267266923587 -7.446503249866966e-07
  endloop
endfacet
facet normal -1.1956173094755958e-30 0.9999999999999999 -1.4900975189857668e-08
  outer loop
    vertex 1584.4291848765959 -582.2267266539831 2.5753765702516622
    vertex 1584.802513217607 -582.2267266582517 2.28891165881651
    vertex 1581.8538075616939 -582.2267266923587 -7.446503249866966e-07
  endloop
endfacet
facet normal -1.1956173094755958e-30 0.9999999999999999 -1.4900975189857668e-08
  outer loop
    vertex 1584.1427199651607 -582.2267266484201 2.94870491126269
    vertex 1584.4291848765959 -582.2267266539831 2.5753765702516622
    vertex 1581.8538075616939 -582.2267266923587 -7.446503249866966e-07
  endloop
endfacet
facet normal -1.1956173094755958e-30 0.9999999999999999 -1.4900975189857668e-08
  outer loop
    vertex 1583.96264059361 -582.2267266419419 3.3834549723639387
    vertex 1584.1427199651607 -582.2267266484201 2.94870491126269
    vertex 1581.8538075616939 -582.2267266923587 -7.446503249866966e-07
  endloop
endfacet
facet normal -1.1956173094755958e-30 0.9999999999999999 -1.4900975189857668e-08
  outer loop
    vertex 1583.9012188735198 -582.22672663499 3.849999255349701
    vertex 1583.96264059361 -582.2267266419419 3.3834549723639387
    vertex 1581.8538075616939 -582.2267266923587 -7.446503249866966e-07
  endloop
endfacet
facet normal -1.1956173094755958e-30 0.9999999999999999 -1.4900975189857668e-08
  outer loop
    vertex 1581.8538075616939 -582.2267265776212 7.699999255349727
    vertex 1583.9012188735198 -582.22672663499 3.849999255349701
    vertex 1581.8538075616939 -582.2267266923587 -7.446503249866966e-07
  endloop
endfacet
facet normal -1.1956173272916691e-30 1.4900976041989463e-08 0.9999999999999999
  outer loop
    vertex 1586.7030575972183 -582.2267265776212 7.699999255349727
    vertex 1581.8538075616939 -582.2267265776212 7.699999255349727
    vertex 1586.7030575972183 -632.1999998852629 7.700000000000053
  endloop
endfacet
facet normal -1.1956173272916691e-30 1.4900976041989463e-08 0.9999999999999999
  outer loop
    vertex 1581.8538075616939 -632.1999998852629 7.700000000000053
    vertex 1586.7030575972183 -632.1999998852629 7.700000000000053
    vertex 1581.8538075616939 -582.2267265776212 7.699999255349727
  endloop
endfacet
facet normal 0.1305261922200937 1.4773495231110751e-08 0.9914448613738047
  outer loop
    vertex 1587.5474823029942 -582.2267265792777 7.58882863380971
    vertex 1586.7030575972183 -582.2267265776212 7.699999255349727
    vertex 1587.5474823029942 -632.1999998869195 7.5888293784600345
  endloop
endfacet
facet normal 0.1305261922200937 1.4773495231110751e-08 0.9914448613738047
  outer loop
    vertex 1586.7030575972183 -632.1999998852629 7.700000000000053
    vertex 1587.5474823029942 -632.1999998869195 7.5888293784600345
    vertex 1586.7030575972183 -582.2267265776212 7.699999255349727
  endloop
endfacet
facet normal 0.382683432365079 1.3766705111663174e-08 0.9238795325112912
  outer loop
    vertex 1587.5474823029942 -582.2267265792777 7.58882863380971
    vertex 1587.5474823029942 -632.1999998869195 7.5888293784600345
    vertex 1588.1938842570269 -582.2267265832675 7.32108017770501
  endloop
endfacet
facet normal 0.382683432365079 1.3766705111663174e-08 0.9238795325112912
  outer loop
    vertex 1588.1938842570269 -632.1999998909091 7.3210809223553355
    vertex 1588.1938842570269 -582.2267265832675 7.32108017770501
    vertex 1587.5474823029942 -632.1999998869195 7.5888293784600345
  endloop
endfacet
facet normal 0.6087614290087029 1.1821737684231854e-08 0.7933533402912487
  outer loop
    vertex 1588.1938842570269 -582.2267265832675 7.32108017770501
    vertex 1588.1938842570269 -632.1999998909091 7.3210809223553355
    vertex 1588.7489621988539 -582.2267265896141 6.895153892509375
  endloop
endfacet
facet normal 0.6087614290087029 1.1821737684231854e-08 0.7933533402912487
  outer loop
    vertex 1588.7489621988539 -632.1999998972559 6.8951546371597
    vertex 1588.7489621988539 -582.2267265896141 6.895153892509375
    vertex 1588.1938842570269 -632.1999998909091 7.3210809223553355
  endloop
endfacet
facet normal 0.7933533402912012 9.07113837016471e-09 0.6087614290087651
  outer loop
    vertex 1589.1748884840495 -632.1999999055271 6.340076695332724
    vertex 1589.1748884840495 -582.2267265978854 6.3400759506825795
    vertex 1588.7489621988539 -632.1999998972559 6.8951546371597
  endloop
endfacet
facet normal 0.7933533402912012 9.07113837016471e-09 0.6087614290087651
  outer loop
    vertex 1588.7489621988539 -582.2267265896141 6.895153892509375
    vertex 1588.7489621988539 -632.1999998972559 6.8951546371597
    vertex 1589.1748884840495 -582.2267265978854 6.3400759506825795
  endloop
endfacet
facet normal 0.9238795325112001 5.702355966388667e-09 0.382683432365299
  outer loop
    vertex 1589.4426369401542 -632.1999999151591 5.6936747413002795
    vertex 1589.4426369401542 -582.2267266075174 5.693673996650135
    vertex 1589.1748884840495 -632.1999999055271 6.340076695332724
  endloop
endfacet
facet normal 0.9238795325112001 5.702355966388667e-09 0.382683432365299
  outer loop
    vertex 1589.1748884840495 -582.2267265978854 6.3400759506825795
    vertex 1589.1748884840495 -632.1999999055271 6.340076695332724
    vertex 1589.4426369401542 -582.2267266075174 5.693673996650135
  endloop
endfacet
facet normal 0.9914448613738349 1.944967427504999e-09 0.1305261922198663
  outer loop
    vertex 1589.553807561694 -632.1999999277418 4.849250035525002
    vertex 1589.553807561694 -582.2267266201002 4.849249290874858
    vertex 1589.4426369401542 -632.1999999151591 5.6936747413002795
  endloop
endfacet
facet normal 0.9914448613738349 1.944967427504999e-09 0.1305261922198663
  outer loop
    vertex 1589.4426369401542 -582.2267266075174 5.693673996650135
    vertex 1589.4426369401542 -632.1999999151591 5.6936747413002795
    vertex 1589.553807561694 -582.2267266201002 4.849249290874858
  endloop
endfacet
facet normal 1.0 1.1956173272914598e-30 1.1956173094758041e-30
  outer loop
    vertex 1589.553807561694 -632.2000000000004 2.485941177067431e-16
    vertex 1589.553807561694 -582.2267266923587 -7.446503249866966e-07
    vertex 1589.553807561694 -632.1999999277418 4.849250035525002
  endloop
endfacet
facet normal 1.0 1.1956173272914598e-30 1.1956173094758041e-30
  outer loop
    vertex 1589.553807561694 -582.2267266201002 4.849249290874858
    vertex 1589.553807561694 -632.1999999277418 4.849250035525002
    vertex 1589.553807561694 -582.2267266923587 -7.446503249866966e-07
  endloop
endfacet
facet normal 1.1956173272916669e-30 -1.4900974236245682e-08 -0.9999999999999999
  outer loop
    vertex 1581.8538075616939 -582.2267266923587 -7.446503249866966e-07
    vertex 1589.553807561694 -582.2267266923587 -7.446503249866966e-07
    vertex 1581.8538075616939 -632.2000000000004 2.485941177067431e-16
  endloop
endfacet
facet normal 1.1956173272916669e-30 -1.4900974236245682e-08 -0.9999999999999999
  outer loop
    vertex 1589.553807561694 -632.2000000000004 2.485941177067431e-16
    vertex 1581.8538075616939 -632.2000000000004 2.485941177067431e-16
    vertex 1589.553807561694 -582.2267266923587 -7.446503249866966e-07
  endloop
endfacet
facet normal -1.0 -1.1956173272914598e-30 -1.1956173094758041e-30
  outer loop
    vertex 1581.8538075616939 -632.2000000000004 2.485941177067431e-16
    vertex 1581.8538075616939 -632.1999998852629 7.700000000000053
    vertex 1581.8538075616939 -582.2267266923587 -7.446503249866966e-07
  endloop
endfacet
facet normal -1.0 -1.1956173272914598e-30 -1.1956173094758041e-30
  outer loop
    vertex 1581.8538075616939 -582.2267265776212 7.699999255349727
    vertex 1581.8538075616939 -582.2267266923587 -7.446503249866966e-07
    vertex 1581.8538075616939 -632.1999998852629 7.700000000000053
  endloop
endfacet
facet normal 0.6087614290086312 -1.1821738400126128e-08 -0.7933533402913038
  outer loop
    vertex 1584.4291848765959 -582.2267266159968 5.12462194044774
    vertex 1584.802513217607 -582.2267266117282 5.411086851882892
    vertex 1584.4291848765959 -632.1999999236385 5.124622685098065
  endloop
endfacet
facet normal 0.6087614290086312 -1.1821738400126128e-08 -0.7933533402913038
  outer loop
    vertex 1584.802513217607 -632.1999999193699 5.411087596533218
    vertex 1584.4291848765959 -632.1999999236385 5.124622685098065
    vertex 1584.802513217607 -582.2267266117282 5.411086851882892
  endloop
endfacet
facet normal 0.7933533402912575 -9.071138369749113e-09 -0.6087614290086916
  outer loop
    vertex 1584.1427199651607 -632.1999999292015 4.751294344087038
    vertex 1584.1427199651607 -582.2267266215598 4.751293599436713
    vertex 1584.4291848765959 -632.1999999236385 5.124622685098065
  endloop
endfacet
facet normal 0.7933533402912575 -9.071138369749113e-09 -0.6087614290086916
  outer loop
    vertex 1584.4291848765959 -582.2267266159968 5.12462194044774
    vertex 1584.4291848765959 -632.1999999236385 5.124622685098065
    vertex 1584.1427199651607 -582.2267266215598 4.751293599436713
  endloop
endfacet
facet normal 0.923879532511331 -5.702355966211413e-09 -0.382683432364983
  outer loop
    vertex 1583.96264059361 -632.1999999356798 4.316544282985789
    vertex 1583.96264059361 -582.226726628038 4.316543538335464
    vertex 1584.1427199651607 -632.1999999292015 4.751294344087038
  endloop
endfacet
facet normal 0.923879532511331 -5.702355966211413e-09 -0.382683432364983
  outer loop
    vertex 1584.1427199651607 -582.2267266215598 4.751293599436713
    vertex 1584.1427199651607 -632.1999999292015 4.751294344087038
    vertex 1583.96264059361 -582.226726628038 4.316543538335464
  endloop
endfacet
facet normal 0.9914448613738035 -1.9449674274525373e-09 -0.1305261922201045
  outer loop
    vertex 1583.9012188735198 -632.1999999426316 3.8500000000000263
    vertex 1583.9012188735198 -582.22672663499 3.849999255349701
    vertex 1583.96264059361 -632.1999999356798 4.316544282985789
  endloop
endfacet
facet normal 0.9914448613738035 -1.9449674274525373e-09 -0.1305261922201045
  outer loop
    vertex 1583.96264059361 -582.226726628038 4.316543538335464
    vertex 1583.96264059361 -632.1999999356798 4.316544282985789
    vertex 1583.9012188735198 -582.22672663499 3.849999255349701
  endloop
endfacet
facet normal 0.991444861373805 1.944967545320054e-09 0.1305261922200921
  outer loop
    vertex 1583.96264059361 -632.1999999495837 3.3834557170142636
    vertex 1583.96264059361 -582.2267266419419 3.3834549723639387
    vertex 1583.9012188735198 -632.1999999426316 3.8500000000000263
  endloop
endfacet
facet normal 0.991444861373805 1.944967545320054e-09 0.1305261922200921
  outer loop
    vertex 1583.9012188735198 -582.22672663499 3.849999255349701
    vertex 1583.9012188735198 -632.1999999426316 3.8500000000000263
    vertex 1583.96264059361 -582.2267266419419 3.3834549723639387
  endloop
endfacet
facet normal 0.9238795325113451 5.702356311678013e-09 0.382683432364949
  outer loop
    vertex 1584.1427199651607 -632.1999999560618 2.9487056559128346
    vertex 1584.1427199651607 -582.2267266484201 2.94870491126269
    vertex 1583.96264059361 -632.1999999495837 3.3834557170142636
  endloop
endfacet
facet normal 0.9238795325113451 5.702356311678013e-09 0.382683432364949
  outer loop
    vertex 1583.96264059361 -582.2267266419419 3.3834549723639387
    vertex 1583.96264059361 -632.1999999495837 3.3834557170142636
    vertex 1584.1427199651607 -582.2267266484201 2.94870491126269
  endloop
endfacet
facet normal 0.7933533402911865 9.071138369750493e-09 0.6087614290087842
  outer loop
    vertex 1584.4291848765959 -632.1999999616248 2.5753773149019876
    vertex 1584.4291848765959 -582.2267266539831 2.5753765702516622
    vertex 1584.1427199651607 -632.1999999560618 2.9487056559128346
  endloop
endfacet
facet normal 0.7933533402911865 9.071138369750493e-09 0.6087614290087842
  outer loop
    vertex 1584.1427199651607 -582.2267266484201 2.94870491126269
    vertex 1584.1427199651607 -632.1999999560618 2.9487056559128346
    vertex 1584.4291848765959 -582.2267266539831 2.5753765702516622
  endloop
endfacet
facet normal 0.6087614290086917 1.1821737683889642e-08 0.7933533402912574
  outer loop
    vertex 1584.4291848765959 -582.2267266539831 2.5753765702516622
    vertex 1584.4291848765959 -632.1999999616248 2.5753773149019876
    vertex 1584.802513217607 -582.2267266582517 2.28891165881651
  endloop
endfacet
facet normal 0.6087614290086917 1.1821737683889642e-08 0.7933533402912574
  outer loop
    vertex 1584.802513217607 -632.1999999658933 2.2889124034668353
    vertex 1584.802513217607 -582.2267266582517 2.28891165881651
    vertex 1584.4291848765959 -632.1999999616248 2.5753773149019876
  endloop
endfacet
facet normal 0.3826834323651466 1.3766705111231485e-08 0.9238795325112631
  outer loop
    vertex 1585.237263278708 -582.226726660935 2.1088322872659
    vertex 1584.802513217607 -582.2267266582517 2.28891165881651
    vertex 1585.237263278708 -632.1999999685768 2.1088330319160447
  endloop
endfacet
facet normal 0.3826834323651466 1.3766705111231485e-08 0.9238795325112631
  outer loop
    vertex 1584.802513217607 -632.1999999658933 2.2889124034668353
    vertex 1585.237263278708 -632.1999999685768 2.1088330319160447
    vertex 1584.802513217607 -582.2267266582517 2.28891165881651
  endloop
endfacet
facet normal 0.13052619222001027 1.4773495231019907e-08 0.9914448613738158
  outer loop
    vertex 1585.703807561694 -582.2267266618503 2.047410567175678
    vertex 1585.237263278708 -582.226726660935 2.1088322872659
    vertex 1585.703807561694 -632.199999969492 2.0474113118260036
  endloop
endfacet
facet normal 0.13052619222001027 1.4773495231019907e-08 0.9914448613738158
  outer loop
    vertex 1585.237263278708 -632.1999999685768 2.1088330319160447
    vertex 1585.703807561694 -632.199999969492 2.0474113118260036
    vertex 1585.237263278708 -582.226726660935 2.1088322872659
  endloop
endfacet
facet normal -0.13052619221996062 1.4773495231020004e-08 0.9914448613738224
  outer loop
    vertex 1585.703807561694 -582.2267266618503 2.047410567175678
    vertex 1585.703807561694 -632.199999969492 2.0474113118260036
    vertex 1586.1703518446798 -582.226726660935 2.1088322872659
  endloop
endfacet
facet normal -0.13052619221996062 1.4773495231020004e-08 0.9914448613738224
  outer loop
    vertex 1586.1703518446798 -632.1999999685768 2.1088330319160447
    vertex 1586.1703518446798 -582.226726660935 2.1088322872659
    vertex 1585.703807561694 -632.199999969492 2.0474113118260036
  endloop
endfacet
facet normal -0.3826834323651466 1.3766705111231485e-08 0.9238795325112631
  outer loop
    vertex 1586.605101905781 -582.2267266582517 2.28891165881651
    vertex 1586.1703518446798 -582.226726660935 2.1088322872659
    vertex 1586.605101905781 -632.1999999658933 2.2889124034668353
  endloop
endfacet
facet normal -0.3826834323651466 1.3766705111231485e-08 0.9238795325112631
  outer loop
    vertex 1586.1703518446798 -632.1999999685768 2.1088330319160447
    vertex 1586.605101905781 -632.1999999658933 2.2889124034668353
    vertex 1586.1703518446798 -582.226726660935 2.1088322872659
  endloop
endfacet
facet normal -0.6087614290088165 1.1821738400301776e-08 0.7933533402911614
  outer loop
    vertex 1586.978430246792 -582.2267266539831 2.5753765702516622
    vertex 1586.605101905781 -582.2267266582517 2.28891165881651
    vertex 1586.978430246792 -632.1999999616248 2.5753773149019876
  endloop
endfacet
facet normal -0.6087614290088165 1.1821738400301776e-08 0.7933533402911614
  outer loop
    vertex 1586.605101905781 -632.1999999658933 2.2889124034668353
    vertex 1586.978430246792 -632.1999999616248 2.5753773149019876
    vertex 1586.605101905781 -582.2267266582517 2.28891165881651
  endloop
endfacet
facet normal -0.793353340291293 9.071138919335478e-09 0.6087614290086453
  outer loop
    vertex 1586.978430246792 -632.1999999616248 2.5753773149019876
    vertex 1587.264895158227 -632.1999999560618 2.948705655913015
    vertex 1586.978430246792 -582.2267266539831 2.5753765702516622
  endloop
endfacet
facet normal -0.793353340291293 9.071138919335478e-09 0.6087614290086453
  outer loop
    vertex 1587.264895158227 -582.2267266484201 2.94870491126269
    vertex 1586.978430246792 -582.2267266539831 2.5753765702516622
    vertex 1587.264895158227 -632.1999999560618 2.948705655913015
  endloop
endfacet
facet normal -0.923879532511317 5.702356311679024e-09 0.38268343236501684
  outer loop
    vertex 1587.264895158227 -632.1999999560618 2.948705655913015
    vertex 1587.4449745297777 -632.1999999495837 3.3834557170142636
    vertex 1587.264895158227 -582.2267266484201 2.94870491126269
  endloop
endfacet
facet normal -0.923879532511317 5.702356311679024e-09 0.38268343236501684
  outer loop
    vertex 1587.4449745297777 -582.2267266419419 3.3834549723639387
    vertex 1587.264895158227 -582.2267266484201 2.94870491126269
    vertex 1587.4449745297777 -632.1999999495837 3.3834557170142636
  endloop
endfacet
facet normal -0.9914448613737555 1.9449675452701322e-09 0.1305261922204691
  outer loop
    vertex 1587.4449745297777 -632.1999999495837 3.3834557170142636
    vertex 1587.5063962498682 -632.1999999426316 3.8500000000000263
    vertex 1587.4449745297777 -582.2267266419419 3.3834549723639387
  endloop
endfacet
facet normal -0.9914448613737555 1.9449675452701322e-09 0.1305261922204691
  outer loop
    vertex 1587.5063962498682 -582.22672663499 3.849999255349701
    vertex 1587.4449745297777 -582.2267266419419 3.3834549723639387
    vertex 1587.5063962498682 -632.1999999426316 3.8500000000000263
  endloop
endfacet
facet normal -0.991444861373754 -1.9449674274026157e-09 -0.1305261922204815
  outer loop
    vertex 1587.5063962498682 -632.1999999426316 3.8500000000000263
    vertex 1587.4449745297777 -632.1999999356798 4.316544282985789
    vertex 1587.5063962498682 -582.22672663499 3.849999255349701
  endloop
endfacet
facet normal -0.991444861373754 -1.9449674274026157e-09 -0.1305261922204815
  outer loop
    vertex 1587.4449745297777 -582.226726628038 4.316543538335464
    vertex 1587.5063962498682 -582.22672663499 3.849999255349701
    vertex 1587.4449745297777 -632.1999999356798 4.316544282985789
  endloop
endfacet
facet normal -0.923879532511331 -5.702355966211412e-09 -0.3826834323649829
  outer loop
    vertex 1587.4449745297777 -632.1999999356798 4.316544282985789
    vertex 1587.264895158227 -632.1999999292015 4.751294344087038
    vertex 1587.4449745297777 -582.226726628038 4.316543538335464
  endloop
endfacet
facet normal -0.923879532511331 -5.702355966211412e-09 -0.3826834323649829
  outer loop
    vertex 1587.264895158227 -582.2267266215598 4.751293599436713
    vertex 1587.4449745297777 -582.226726628038 4.316543538335464
    vertex 1587.264895158227 -632.1999999292015 4.751294344087038
  endloop
endfacet
facet normal -0.7933533402911863 -9.071138369750493e-09 -0.6087614290087842
  outer loop
    vertex 1587.264895158227 -632.1999999292015 4.751294344087038
    vertex 1586.978430246792 -632.1999999236385 5.124622685097885
    vertex 1587.264895158227 -582.2267266215598 4.751293599436713
  endloop
endfacet
facet normal -0.7933533402911863 -9.071138369750493e-09 -0.6087614290087842
  outer loop
    vertex 1586.978430246792 -582.2267266159968 5.12462194044774
    vertex 1587.264895158227 -582.2267266215598 4.751293599436713
    vertex 1586.978430246792 -632.1999999236385 5.124622685097885
  endloop
endfacet
facet normal -0.6087614290087521 -1.1821738400302517e-08 -0.7933533402912112
  outer loop
    vertex 1586.978430246792 -582.2267266159968 5.12462194044774
    vertex 1586.978430246792 -632.1999999236385 5.124622685097885
    vertex 1586.6051019057809 -582.2267266117282 5.411086851882892
  endloop
endfacet
facet normal -0.6087614290087521 -1.1821738400302517e-08 -0.7933533402912112
  outer loop
    vertex 1586.6051019057809 -632.1999999193699 5.411087596533218
    vertex 1586.6051019057809 -582.2267266117282 5.411086851882892
    vertex 1586.978430246792 -632.1999999236385 5.124622685097885
  endloop
endfacet
facet normal -0.3826834323652004 -1.37667059454769e-08 -0.9238795325112409
  outer loop
    vertex 1586.1703518446798 -582.2267266090448 5.591166223433502
    vertex 1586.6051019057809 -582.2267266117282 5.411086851882892
    vertex 1586.1703518446798 -632.1999999166866 5.591166968083828
  endloop
endfacet
facet normal -0.3826834323652004 -1.37667059454769e-08 -0.9238795325112409
  outer loop
    vertex 1586.6051019057809 -632.1999999193699 5.411087596533218
    vertex 1586.1703518446798 -632.1999999166866 5.591166968083828
    vertex 1586.6051019057809 -582.2267266117282 5.411086851882892
  endloop
endfacet
facet normal -0.13052619222005488 -1.47734943359479e-08 -0.9914448613738099
  outer loop
    vertex 1585.703807561694 -582.2267266081296 5.6525879435237245
    vertex 1586.1703518446798 -582.2267266090448 5.591166223433502
    vertex 1585.703807561694 -632.1999999157713 5.652588688174049
  endloop
endfacet
facet normal -0.13052619222005488 -1.47734943359479e-08 -0.9914448613738099
  outer loop
    vertex 1586.1703518446798 -632.1999999166866 5.591166968083828
    vertex 1585.703807561694 -632.1999999157713 5.652588688174049
    vertex 1586.1703518446798 -582.2267266090448 5.591166223433502
  endloop
endfacet
facet normal 0.13052619222010453 -1.4773494335892263e-08 -0.9914448613738034
  outer loop
    vertex 1585.237263278708 -582.2267266090448 5.591166223433502
    vertex 1585.703807561694 -582.2267266081296 5.6525879435237245
    vertex 1585.237263278708 -632.1999999166866 5.591166968083828
  endloop
endfacet
facet normal 0.13052619222010453 -1.4773494335892263e-08 -0.9914448613738034
  outer loop
    vertex 1585.703807561694 -632.1999999157713 5.652588688174049
    vertex 1585.237263278708 -632.1999999166866 5.591166968083828
    vertex 1585.703807561694 -582.2267266081296 5.6525879435237245
  endloop
endfacet
facet normal 0.38268343236506486 -1.3766705945409748e-08 -0.9238795325112971
  outer loop
    vertex 1584.802513217607 -582.2267266117282 5.411086851882892
    vertex 1585.237263278708 -582.2267266090448 5.591166223433502
    vertex 1584.802513217607 -632.1999999193699 5.411087596533218
  endloop
endfacet
facet normal 0.38268343236506486 -1.3766705945409748e-08 -0.9238795325112971
  outer loop
    vertex 1585.237263278708 -632.1999999166866 5.591166968083828
    vertex 1584.802513217607 -632.1999999193699 5.411087596533218
    vertex 1585.237263278708 -582.2267266090448 5.591166223433502
  endloop
endfacet
facet normal 8.339666370550548e-15 1.0 -7.700879981770636e-14
  outer loop
    vertex 1596.4030575972179 -582.2267265776212 7.69999925534673
    vertex 1594.1291848765952 -582.2267265776212 5.124621940444346
    vertex 1591.5538075616928 -582.2267265776211 7.699999255345883
  endloop
endfacet
facet normal 8.339666370550548e-15 1.0 -7.700879981770636e-14
  outer loop
    vertex 1593.84271996516 -582.2267265776213 4.751293599433448
    vertex 1591.5538075616928 -582.2267265776211 7.699999255345883
    vertex 1594.1291848765952 -582.2267265776212 5.124621940444346
  endloop
endfacet
facet normal 8.339666370550548e-15 1.0 -7.700879981770636e-14
  outer loop
    vertex 1591.5538075616942 -582.2267265776217 -7.446541700373288e-07
    vertex 1591.5538075616928 -582.2267265776211 7.699999255345883
    vertex 1593.84271996516 -582.2267265776213 4.751293599433448
  endloop
endfacet
facet normal 8.339666370550548e-15 1.0 -7.700879981770636e-14
  outer loop
    vertex 1597.2474823029931 -582.2267265776212 7.5888286338072195
    vertex 1594.1291848765952 -582.2267265776212 5.124621940444346
    vertex 1596.4030575972179 -582.2267265776212 7.69999925534673
  endloop
endfacet
facet normal 8.339666370550548e-15 1.0 -7.700879981770636e-14
  outer loop
    vertex 1594.502513217606 -582.2267265776212 5.4110868518795625
    vertex 1594.1291848765952 -582.2267265776212 5.124621940444346
    vertex 1597.2474823029931 -582.2267265776212 7.5888286338072195
  endloop
endfacet
facet normal 8.339666370550548e-15 1.0 -7.700879981770636e-14
  outer loop
    vertex 1597.8938842570255 -582.2267265776212 7.321080177702452
    vertex 1594.502513217606 -582.2267265776212 5.4110868518795625
    vertex 1597.2474823029931 -582.2267265776212 7.5888286338072195
  endloop
endfacet
facet normal 8.339666370550548e-15 1.0 -7.700879981770636e-14
  outer loop
    vertex 1594.9372632787074 -582.2267265776212 5.591166223430249
    vertex 1594.502513217606 -582.2267265776212 5.4110868518795625
    vertex 1597.8938842570255 -582.2267265776212 7.321080177702452
  endloop
endfacet
facet normal 8.339666370550548e-15 1.0 -7.700879981770636e-14
  outer loop
    vertex 1598.4489621988525 -582.2267265776212 6.895153892506914
    vertex 1594.9372632787074 -582.2267265776212 5.591166223430249
    vertex 1597.8938842570255 -582.2267265776212 7.321080177702452
  endloop
endfacet
facet normal 8.339666370550548e-15 1.0 -7.700879981770636e-14
  outer loop
    vertex 1598.8748884840484 -582.2267265776212 6.340075950680012
    vertex 1594.9372632787074 -582.2267265776212 5.591166223430249
    vertex 1598.4489621988525 -582.2267265776212 6.895153892506914
  endloop
endfacet
facet normal 8.339666370550548e-15 1.0 -7.700879981770636e-14
  outer loop
    vertex 1595.4038075616932 -582.2267265776212 5.652587943520732
    vertex 1594.9372632787074 -582.2267265776212 5.591166223430249
    vertex 1598.8748884840484 -582.2267265776212 6.340075950680012
  endloop
endfacet
facet normal 8.339666370550548e-15 1.0 -7.700879981770636e-14
  outer loop
    vertex 1599.1426369401531 -582.2267265776212 5.693673996647615
    vertex 1595.4038075616932 -582.2267265776212 5.652587943520732
    vertex 1598.8748884840484 -582.2267265776212 6.340075950680012
  endloop
endfacet
facet normal 8.339666370550548e-15 1.0 -7.700879981770636e-14
  outer loop
    vertex 1593.6626405936092 -582.2267265776213 4.3165435383321675
    vertex 1591.5538075616942 -582.2267265776217 -7.446541700373288e-07
    vertex 1593.84271996516 -582.2267265776213 4.751293599433448
  endloop
endfacet
facet normal 8.339666370550548e-15 1.0 -7.700879981770636e-14
  outer loop
    vertex 1593.6012188735194 -582.2267265776214 3.8499992553462143
    vertex 1591.5538075616942 -582.2267265776217 -7.446541700373288e-07
    vertex 1593.6626405936092 -582.2267265776213 4.3165435383321675
  endloop
endfacet
facet normal 8.339666370550548e-15 1.0 -7.700879981770636e-14
  outer loop
    vertex 1593.6626405936095 -582.2267265776214 3.3834549723604623
    vertex 1591.5538075616942 -582.2267265776217 -7.446541700373288e-07
    vertex 1593.6012188735194 -582.2267265776214 3.8499992553462143
  endloop
endfacet
facet normal 8.339666370550548e-15 1.0 -7.700879981770636e-14
  outer loop
    vertex 1593.8427199651605 -582.2267265776214 2.9487049112592447
    vertex 1591.5538075616942 -582.2267265776217 -7.446541700373288e-07
    vertex 1593.6626405936095 -582.2267265776214 3.3834549723604623
  endloop
endfacet
facet normal 8.339666370550548e-15 1.0 -7.700879981770636e-14
  outer loop
    vertex 1594.1291848765957 -582.2267265776215 2.5753765702482676
    vertex 1591.5538075616942 -582.2267265776217 -7.446541700373288e-07
    vertex 1593.8427199651605 -582.2267265776214 2.9487049112592447
  endloop
endfacet
facet normal 8.339666370550548e-15 1.0 -7.700879981770636e-14
  outer loop
    vertex 1594.5025132176065 -582.2267265776215 2.28891165881318
    vertex 1591.5538075616942 -582.2267265776217 -7.446541700373288e-07
    vertex 1594.1291848765957 -582.2267265776215 2.5753765702482676
  endloop
endfacet
facet normal 8.339666370550548e-15 1.0 -7.700879981770636e-14
  outer loop
    vertex 1594.937263278708 -582.2267265776215 2.108832287262646
    vertex 1591.5538075616942 -582.2267265776217 -7.446541700373288e-07
    vertex 1594.5025132176065 -582.2267265776215 2.28891165881318
  endloop
endfacet
facet normal 8.339666370550548e-15 1.0 -7.700879981770636e-14
  outer loop
    vertex 1595.4038075616938 -582.2267265776215 2.047410567172505
    vertex 1591.5538075616942 -582.2267265776217 -7.446541700373288e-07
    vertex 1594.937263278708 -582.2267265776215 2.108832287262646
  endloop
endfacet
facet normal 8.339666370550548e-15 1.0 -7.700879981770636e-14
  outer loop
    vertex 1599.2538075616933 -582.2267265776213 4.8492492908714535
    vertex 1595.870351844679 -582.2267265776212 5.591166223430411
    vertex 1599.1426369401531 -582.2267265776212 5.693673996647615
  endloop
endfacet
facet normal 8.339666370550548e-15 1.0 -7.700879981770636e-14
  outer loop
    vertex 1595.4038075616932 -582.2267265776212 5.652587943520732
    vertex 1599.1426369401531 -582.2267265776212 5.693673996647615
    vertex 1595.870351844679 -582.2267265776212 5.591166223430411
  endloop
endfacet
facet normal 8.339666370550548e-15 1.0 -7.700879981770636e-14
  outer loop
    vertex 1596.3051019057802 -582.2267265776212 5.411086851879877
    vertex 1595.870351844679 -582.2267265776212 5.591166223430411
    vertex 1599.2538075616933 -582.2267265776213 4.8492492908714535
  endloop
endfacet
facet normal 8.339666370550548e-15 1.0 -7.700879981770636e-14
  outer loop
    vertex 1596.678430246791 -582.2267265776213 5.12462194044479
    vertex 1596.3051019057802 -582.2267265776212 5.411086851879877
    vertex 1599.2538075616933 -582.2267265776213 4.8492492908714535
  endloop
endfacet
facet normal 8.339666370550548e-15 1.0 -7.700879981770636e-14
  outer loop
    vertex 1596.9648951582265 -582.2267265776213 4.751293599433812
    vertex 1596.678430246791 -582.2267265776213 5.12462194044479
    vertex 1599.2538075616933 -582.2267265776213 4.8492492908714535
  endloop
endfacet
facet normal 8.339666370550548e-15 1.0 -7.700879981770636e-14
  outer loop
    vertex 1599.2538075616942 -582.2267265776217 -7.446528277332831e-07
    vertex 1596.9648951582265 -582.2267265776213 4.751293599433812
    vertex 1599.2538075616933 -582.2267265776213 4.8492492908714535
  endloop
endfacet
facet normal 8.339666370550548e-15 1.0 -7.700879981770636e-14
  outer loop
    vertex 1597.144974529777 -582.2267265776213 4.316543538332775
    vertex 1596.9648951582265 -582.2267265776213 4.751293599433812
    vertex 1599.2538075616942 -582.2267265776217 -7.446528277332831e-07
  endloop
endfacet
facet normal 8.339666370550548e-15 1.0 -7.700879981770636e-14
  outer loop
    vertex 1597.2063962498676 -582.2267265776214 3.849999255346843
    vertex 1597.144974529777 -582.2267265776213 4.316543538332775
    vertex 1599.2538075616942 -582.2267265776217 -7.446528277332831e-07
  endloop
endfacet
facet normal 8.339666370550548e-15 1.0 -7.700879981770636e-14
  outer loop
    vertex 1597.1449745297773 -582.2267265776214 3.3834549723610694
    vertex 1597.2063962498676 -582.2267265776214 3.849999255346843
    vertex 1599.2538075616942 -582.2267265776217 -7.446528277332831e-07
  endloop
endfacet
facet normal 8.339666370550548e-15 1.0 -7.700879981770636e-14
  outer loop
    vertex 1596.964895158227 -582.2267265776215 2.948704911259789
    vertex 1597.1449745297773 -582.2267265776214 3.3834549723610694
    vertex 1599.2538075616942 -582.2267265776217 -7.446528277332831e-07
  endloop
endfacet
facet normal 8.339666370550548e-15 1.0 -7.700879981770636e-14
  outer loop
    vertex 1596.6784302467918 -582.2267265776215 2.5753765702487117
    vertex 1596.964895158227 -582.2267265776215 2.948704911259789
    vertex 1599.2538075616942 -582.2267265776217 -7.446528277332831e-07
  endloop
endfacet
facet normal 8.339666370550548e-15 1.0 -7.700879981770636e-14
  outer loop
    vertex 1596.3051019057807 -582.2267265776215 2.2889116588134946
    vertex 1596.6784302467918 -582.2267265776215 2.5753765702487117
    vertex 1599.2538075616942 -582.2267265776217 -7.446528277332831e-07
  endloop
endfacet
facet normal 8.339666370550548e-15 1.0 -7.700879981770636e-14
  outer loop
    vertex 1595.8703518446796 -582.2267265776215 2.1088322872628082
    vertex 1596.3051019057807 -582.2267265776215 2.2889116588134946
    vertex 1599.2538075616942 -582.2267265776217 -7.446528277332831e-07
  endloop
endfacet
facet normal 8.339666370550548e-15 1.0 -7.700879981770636e-14
  outer loop
    vertex 1595.4038075616938 -582.2267265776215 2.047410567172505
    vertex 1595.8703518446796 -582.2267265776215 2.1088322872628082
    vertex 1599.2538075616942 -582.2267265776217 -7.446528277332831e-07
  endloop
endfacet
facet normal 8.339666370550548e-15 1.0 -7.700879981770636e-14
  outer loop
    vertex 1591.5538075616942 -582.2267265776217 -7.446541700373288e-07
    vertex 1595.4038075616938 -582.2267265776215 2.047410567172505
    vertex 1599.2538075616942 -582.2267265776217 -7.446528277332831e-07
  endloop
endfacet
facet normal -8.38218383591993e-15 -1.0 7.700784454556241e-14
  outer loop
    vertex 1595.403807561693 -632.199999885263 5.652587943524581
    vertex 1595.8703518446787 -632.199999885263 5.591166223434259
    vertex 1599.142636940153 -632.199999885263 5.693673996651462
  endloop
endfacet
facet normal -8.38218383591993e-15 -1.0 7.700784454556241e-14
  outer loop
    vertex 1599.253807561693 -632.1999998852631 4.849249290875302
    vertex 1599.142636940153 -632.199999885263 5.693673996651462
    vertex 1595.8703518446787 -632.199999885263 5.591166223434259
  endloop
endfacet
facet normal -8.38218383591993e-15 -1.0 7.700784454556241e-14
  outer loop
    vertex 1596.30510190578 -632.199999885263 5.411086851883725
    vertex 1599.253807561693 -632.1999998852631 4.849249290875302
    vertex 1595.8703518446787 -632.199999885263 5.591166223434259
  endloop
endfacet
facet normal -8.38218383591993e-15 -1.0 7.700784454556241e-14
  outer loop
    vertex 1596.678430246791 -632.1999998852631 5.1246219404486375
    vertex 1599.253807561693 -632.1999998852631 4.849249290875302
    vertex 1596.30510190578 -632.199999885263 5.411086851883725
  endloop
endfacet
facet normal -8.38218383591993e-15 -1.0 7.700784454556241e-14
  outer loop
    vertex 1596.9648951582265 -632.1999998852631 4.751293599437661
    vertex 1599.253807561693 -632.1999998852631 4.849249290875302
    vertex 1596.678430246791 -632.1999998852631 5.1246219404486375
  endloop
endfacet
facet normal -8.38218383591993e-15 -1.0 7.700784454556241e-14
  outer loop
    vertex 1599.253807561694 -632.1999998852634 -7.446489784790344e-07
    vertex 1599.253807561693 -632.1999998852631 4.849249290875302
    vertex 1596.9648951582265 -632.1999998852631 4.751293599437661
  endloop
endfacet
facet normal -8.38218383591993e-15 -1.0 7.700784454556241e-14
  outer loop
    vertex 1597.1449745297768 -632.1999998852631 4.316543538336623
    vertex 1599.253807561694 -632.1999998852634 -7.446489784790344e-07
    vertex 1596.9648951582265 -632.1999998852631 4.751293599437661
  endloop
endfacet
facet normal -8.38218383591993e-15 -1.0 7.700784454556241e-14
  outer loop
    vertex 1597.2063962498673 -632.1999998852632 3.8499992553506908
    vertex 1599.253807561694 -632.1999998852634 -7.446489784790344e-07
    vertex 1597.1449745297768 -632.1999998852631 4.316543538336623
  endloop
endfacet
facet normal -8.38218383591993e-15 -1.0 7.700784454556241e-14
  outer loop
    vertex 1597.144974529777 -632.1999998852632 3.383454972364917
    vertex 1599.253807561694 -632.1999998852634 -7.446489784790344e-07
    vertex 1597.2063962498673 -632.1999998852632 3.8499992553506908
  endloop
endfacet
facet normal -8.38218383591993e-15 -1.0 7.700784454556241e-14
  outer loop
    vertex 1596.9648951582265 -632.1999998852632 2.9487049112636368
    vertex 1599.253807561694 -632.1999998852634 -7.446489784790344e-07
    vertex 1597.144974529777 -632.1999998852632 3.383454972364917
  endloop
endfacet
facet normal -8.38218383591993e-15 -1.0 7.700784454556241e-14
  outer loop
    vertex 1596.6784302467915 -632.1999998852632 2.5753765702525593
    vertex 1599.253807561694 -632.1999998852634 -7.446489784790344e-07
    vertex 1596.9648951582265 -632.1999998852632 2.9487049112636368
  endloop
endfacet
facet normal -8.38218383591993e-15 -1.0 7.700784454556241e-14
  outer loop
    vertex 1596.3051019057805 -632.1999998852632 2.288911658817342
    vertex 1599.253807561694 -632.1999998852634 -7.446489784790344e-07
    vertex 1596.6784302467915 -632.1999998852632 2.5753765702525593
  endloop
endfacet
facet normal -8.38218383591993e-15 -1.0 7.700784454556241e-14
  outer loop
    vertex 1595.8703518446794 -632.1999998852632 2.108832287266656
    vertex 1599.253807561694 -632.1999998852634 -7.446489784790344e-07
    vertex 1596.3051019057805 -632.1999998852632 2.288911658817342
  endloop
endfacet
facet normal -8.38218383591993e-15 -1.0 7.700784454556241e-14
  outer loop
    vertex 1595.4038075616936 -632.1999998852632 2.047410567176353
    vertex 1599.253807561694 -632.1999998852634 -7.446489784790344e-07
    vertex 1595.8703518446794 -632.1999998852632 2.108832287266656
  endloop
endfacet
facet normal -8.38218383591993e-15 -1.0 7.700784454556241e-14
  outer loop
    vertex 1596.4030575972179 -632.1999998852627 7.699999255350577
    vertex 1591.5538075616926 -632.1999998852627 7.6999992553497325
    vertex 1597.2474823029931 -632.1999998852627 7.588828633811069
  endloop
endfacet
facet normal -8.38218383591993e-15 -1.0 7.700784454556241e-14
  outer loop
    vertex 1594.129184876595 -632.199999885263 5.124621940448193
    vertex 1597.2474823029931 -632.1999998852627 7.588828633811069
    vertex 1591.5538075616926 -632.1999998852627 7.6999992553497325
  endloop
endfacet
facet normal -8.38218383591993e-15 -1.0 7.700784454556241e-14
  outer loop
    vertex 1593.8427199651599 -632.1999998852631 4.751293599437298
    vertex 1594.129184876595 -632.199999885263 5.124621940448193
    vertex 1591.5538075616926 -632.1999998852627 7.6999992553497325
  endloop
endfacet
facet normal -8.38218383591993e-15 -1.0 7.700784454556241e-14
  outer loop
    vertex 1591.553807561694 -632.1999998852633 -7.446503207830801e-07
    vertex 1593.8427199651599 -632.1999998852631 4.751293599437298
    vertex 1591.5538075616926 -632.1999998852627 7.6999992553497325
  endloop
endfacet
facet normal -8.38218383591993e-15 -1.0 7.700784454556241e-14
  outer loop
    vertex 1594.502513217606 -632.199999885263 5.411086851883411
    vertex 1597.2474823029931 -632.1999998852627 7.588828633811069
    vertex 1594.129184876595 -632.199999885263 5.124621940448193
  endloop
endfacet
facet normal -8.38218383591993e-15 -1.0 7.700784454556241e-14
  outer loop
    vertex 1597.8938842570255 -632.1999998852629 7.3210801777063015
    vertex 1597.2474823029931 -632.1999998852627 7.588828633811069
    vertex 1594.502513217606 -632.199999885263 5.411086851883411
  endloop
endfacet
facet normal -8.38218383591993e-15 -1.0 7.700784454556241e-14
  outer loop
    vertex 1594.9372632787072 -632.199999885263 5.591166223434097
    vertex 1597.8938842570255 -632.1999998852629 7.3210801777063015
    vertex 1594.502513217606 -632.199999885263 5.411086851883411
  endloop
endfacet
facet normal -8.38218383591993e-15 -1.0 7.700784454556241e-14
  outer loop
    vertex 1598.4489621988525 -632.1999998852629 6.895153892510763
    vertex 1597.8938842570255 -632.1999998852629 7.3210801777063015
    vertex 1594.9372632787072 -632.199999885263 5.591166223434097
  endloop
endfacet
facet normal -8.38218383591993e-15 -1.0 7.700784454556241e-14
  outer loop
    vertex 1598.8748884840481 -632.199999885263 6.34007595068386
    vertex 1598.4489621988525 -632.1999998852629 6.895153892510763
    vertex 1594.9372632787072 -632.199999885263 5.591166223434097
  endloop
endfacet
facet normal -8.38218383591993e-15 -1.0 7.700784454556241e-14
  outer loop
    vertex 1595.403807561693 -632.199999885263 5.652587943524581
    vertex 1598.8748884840481 -632.199999885263 6.34007595068386
    vertex 1594.9372632787072 -632.199999885263 5.591166223434097
  endloop
endfacet
facet normal -8.38218383591993e-15 -1.0 7.700784454556241e-14
  outer loop
    vertex 1599.142636940153 -632.199999885263 5.693673996651462
    vertex 1598.8748884840481 -632.199999885263 6.34007595068386
    vertex 1595.403807561693 -632.199999885263 5.652587943524581
  endloop
endfacet
facet normal -8.38218383591993e-15 -1.0 7.700784454556241e-14
  outer loop
    vertex 1593.6626405936092 -632.1999998852631 4.316543538336015
    vertex 1593.8427199651599 -632.1999998852631 4.751293599437298
    vertex 1591.553807561694 -632.1999998852633 -7.446503207830801e-07
  endloop
endfacet
facet normal -8.38218383591993e-15 -1.0 7.700784454556241e-14
  outer loop
    vertex 1593.6012188735192 -632.1999998852631 3.849999255350062
    vertex 1593.6626405936092 -632.1999998852631 4.316543538336015
    vertex 1591.553807561694 -632.1999998852633 -7.446503207830801e-07
  endloop
endfacet
facet normal -8.38218383591993e-15 -1.0 7.700784454556241e-14
  outer loop
    vertex 1593.6626405936095 -632.1999998852632 3.38345497236431
    vertex 1593.6012188735192 -632.1999998852631 3.849999255350062
    vertex 1591.553807561694 -632.1999998852633 -7.446503207830801e-07
  endloop
endfacet
facet normal -8.38218383591993e-15 -1.0 7.700784454556241e-14
  outer loop
    vertex 1593.84271996516 -632.1999998852632 2.9487049112630928
    vertex 1593.6626405936095 -632.1999998852632 3.38345497236431
    vertex 1591.553807561694 -632.1999998852633 -7.446503207830801e-07
  endloop
endfacet
facet normal -8.38218383591993e-15 -1.0 7.700784454556241e-14
  outer loop
    vertex 1594.1291848765954 -632.1999998852632 2.575376570252115
    vertex 1593.84271996516 -632.1999998852632 2.9487049112630928
    vertex 1591.553807561694 -632.1999998852633 -7.446503207830801e-07
  endloop
endfacet
facet normal -8.38218383591993e-15 -1.0 7.700784454556241e-14
  outer loop
    vertex 1594.5025132176065 -632.1999998852632 2.2889116588170277
    vertex 1594.1291848765954 -632.1999998852632 2.575376570252115
    vertex 1591.553807561694 -632.1999998852633 -7.446503207830801e-07
  endloop
endfacet
facet normal -8.38218383591993e-15 -1.0 7.700784454556241e-14
  outer loop
    vertex 1594.9372632787079 -632.1999998852632 2.1088322872664937
    vertex 1594.5025132176065 -632.1999998852632 2.2889116588170277
    vertex 1591.553807561694 -632.1999998852633 -7.446503207830801e-07
  endloop
endfacet
facet normal -8.38218383591993e-15 -1.0 7.700784454556241e-14
  outer loop
    vertex 1595.4038075616936 -632.1999998852632 2.047410567176353
    vertex 1594.9372632787079 -632.1999998852632 2.1088322872664937
    vertex 1591.553807561694 -632.1999998852633 -7.446503207830801e-07
  endloop
endfacet
facet normal -8.38218383591993e-15 -1.0 7.700784454556241e-14
  outer loop
    vertex 1599.253807561694 -632.1999998852634 -7.446489784790344e-07
    vertex 1595.4038075616936 -632.1999998852632 2.047410567176353
    vertex 1591.553807561694 -632.1999998852633 -7.446503207830801e-07
  endloop
endfacet
facet normal 1.0 -9.234315629793168e-15 1.7430501486614968e-13
  outer loop
    vertex 1599.253807561693 -632.1999998852631 4.849249290875302
    vertex 1599.253807561694 -632.1999998852634 -7.446489784790344e-07
    vertex 1599.2538075616933 -582.2267265776213 4.8492492908714535
  endloop
endfacet
facet normal 1.0 -9.234315629793168e-15 1.7430501486614968e-13
  outer loop
    vertex 1599.2538075616942 -582.2267265776217 -7.446528277332831e-07
    vertex 1599.2538075616933 -582.2267265776213 4.8492492908714535
    vertex 1599.253807561694 -632.1999998852634 -7.446489784790344e-07
  endloop
endfacet
facet normal 0.9914448613737823 1.7913998183605596e-15 0.13052619222026654
  outer loop
    vertex 1599.142636940153 -632.199999885263 5.693673996651462
    vertex 1599.253807561693 -632.1999998852631 4.849249290875302
    vertex 1599.1426369401531 -582.2267265776212 5.693673996647615
  endloop
endfacet
facet normal 0.9914448613737823 1.7913998183605596e-15 0.13052619222026654
  outer loop
    vertex 1599.2538075616933 -582.2267265776213 4.8492492908714535
    vertex 1599.1426369401531 -582.2267265776212 5.693673996647615
    vertex 1599.253807561693 -632.1999998852631 4.849249290875302
  endloop
endfacet
facet normal 0.9238795325112246 2.2606203062895306e-14 0.38268343236524005
  outer loop
    vertex 1599.142636940153 -632.199999885263 5.693673996651462
    vertex 1599.1426369401531 -582.2267265776212 5.693673996647615
    vertex 1598.8748884840481 -632.199999885263 6.34007595068386
  endloop
endfacet
facet normal 0.9238795325112246 2.2606203062895306e-14 0.38268343236524005
  outer loop
    vertex 1598.8748884840484 -582.2267265776212 6.340075950680012
    vertex 1598.8748884840481 -632.199999885263 6.34007595068386
    vertex 1599.1426369401531 -582.2267265776212 5.693673996647615
  endloop
endfacet
facet normal 0.7933533402911427 4.0985610697739644e-14 0.6087614290088412
  outer loop
    vertex 1598.8748884840481 -632.199999885263 6.34007595068386
    vertex 1598.8748884840484 -582.2267265776212 6.340075950680012
    vertex 1598.4489621988525 -632.1999998852629 6.895153892510763
  endloop
endfacet
facet normal 0.7933533402911427 4.0985610697739644e-14 0.6087614290088412
  outer loop
    vertex 1598.4489621988525 -582.2267265776212 6.895153892506914
    vertex 1598.4489621988525 -632.1999998852629 6.895153892510763
    vertex 1598.8748884840484 -582.2267265776212 6.340075950680012
  endloop
endfacet
facet normal 0.6087614290086268 5.6571717688146256e-14 0.7933533402913073
  outer loop
    vertex 1597.8938842570255 -582.2267265776212 7.321080177702452
    vertex 1597.8938842570255 -632.1999998852629 7.3210801777063015
    vertex 1598.4489621988525 -582.2267265776212 6.895153892506914
  endloop
endfacet
facet normal 0.6087614290086268 5.6571717688146256e-14 0.7933533402913073
  outer loop
    vertex 1598.4489621988525 -632.1999998852629 6.895153892510763
    vertex 1598.4489621988525 -582.2267265776212 6.895153892506914
    vertex 1597.8938842570255 -632.1999998852629 7.3210801777063015
  endloop
endfacet
facet normal 0.382683432365138 6.830310476681547e-14 0.9238795325112669
  outer loop
    vertex 1597.2474823029931 -582.2267265776212 7.5888286338072195
    vertex 1597.2474823029931 -632.1999998852627 7.588828633811069
    vertex 1597.8938842570255 -582.2267265776212 7.321080177702452
  endloop
endfacet
facet normal 0.382683432365138 6.830310476681547e-14 0.9238795325112669
  outer loop
    vertex 1597.8938842570255 -632.1999998852629 7.3210801777063015
    vertex 1597.8938842570255 -582.2267265776212 7.321080177702452
    vertex 1597.2474823029931 -632.1999998852627 7.588828633811069
  endloop
endfacet
facet normal 0.13052619221969353 7.537932704340412e-14 0.9914448613738577
  outer loop
    vertex 1596.4030575972179 -582.2267265776212 7.69999925534673
    vertex 1596.4030575972179 -632.1999998852627 7.699999255350577
    vertex 1597.2474823029931 -582.2267265776212 7.5888286338072195
  endloop
endfacet
facet normal 0.13052619221969353 7.537932704340412e-14 0.9914448613738577
  outer loop
    vertex 1597.2474823029931 -632.1999998852627 7.588828633811069
    vertex 1597.2474823029931 -582.2267265776212 7.5888286338072195
    vertex 1596.4030575972179 -632.1999998852627 7.699999255350577
  endloop
endfacet
facet normal -1.7430501486614895e-13 7.700784454556387e-14 1.0
  outer loop
    vertex 1591.5538075616928 -582.2267265776211 7.699999255345883
    vertex 1591.5538075616926 -632.1999998852627 7.6999992553497325
    vertex 1596.4030575972179 -582.2267265776212 7.69999925534673
  endloop
endfacet
facet normal -1.7430501486614895e-13 7.700784454556387e-14 1.0
  outer loop
    vertex 1596.4030575972179 -632.1999998852627 7.699999255350577
    vertex 1596.4030575972179 -582.2267265776212 7.69999925534673
    vertex 1591.5538075616926 -632.1999998852627 7.6999992553497325
  endloop
endfacet
facet normal -1.0 7.42857184979279e-15 -1.7430501486614953e-13
  outer loop
    vertex 1591.553807561694 -632.1999998852633 -7.446503207830801e-07
    vertex 1591.5538075616926 -632.1999998852627 7.6999992553497325
    vertex 1591.5538075616942 -582.2267265776217 -7.446541700373288e-07
  endloop
endfacet
facet normal -1.0 7.42857184979279e-15 -1.7430501486614953e-13
  outer loop
    vertex 1591.5538075616928 -582.2267265776211 7.699999255345883
    vertex 1591.5538075616942 -582.2267265776217 -7.446541700373288e-07
    vertex 1591.5538075616926 -632.1999998852627 7.6999992553497325
  endloop
endfacet
facet normal 1.7430501486614895e-13 -7.700784454556387e-14 -1.0
  outer loop
    vertex 1591.5538075616942 -582.2267265776217 -7.446541700373288e-07
    vertex 1599.2538075616942 -582.2267265776217 -7.446528277332831e-07
    vertex 1591.553807561694 -632.1999998852633 -7.446503207830801e-07
  endloop
endfacet
facet normal 1.7430501486614895e-13 -7.700784454556387e-14 -1.0
  outer loop
    vertex 1599.253807561694 -632.1999998852634 -7.446489784790344e-07
    vertex 1591.553807561694 -632.1999998852633 -7.446503207830801e-07
    vertex 1599.2538075616942 -582.2267265776217 -7.446528277332831e-07
  endloop
endfacet
facet normal -0.79335334029141 5.348909373572299e-14 0.6087614290084928
  outer loop
    vertex 1596.6784302467915 -632.1999998852632 2.5753765702525593
    vertex 1596.9648951582265 -632.1999998852632 2.9487049112636368
    vertex 1596.6784302467918 -582.2267265776215 2.5753765702487117
  endloop
endfacet
facet normal -0.79335334029141 5.348909373572299e-14 0.6087614290084928
  outer loop
    vertex 1596.964895158227 -582.2267265776215 2.948704911259789
    vertex 1596.6784302467918 -582.2267265776215 2.5753765702487117
    vertex 1596.9648951582265 -632.1999998852632 2.9487049112636368
  endloop
endfacet
facet normal -0.60876142900883 6.561672920837501e-14 0.7933533402911513
  outer loop
    vertex 1596.3051019057807 -582.2267265776215 2.2889116588134946
    vertex 1596.3051019057805 -632.1999998852632 2.288911658817342
    vertex 1596.6784302467918 -582.2267265776215 2.5753765702487117
  endloop
endfacet
facet normal -0.60876142900883 6.561672920837501e-14 0.7933533402911513
  outer loop
    vertex 1596.6784302467915 -632.1999998852632 2.5753765702525593
    vertex 1596.6784302467918 -582.2267265776215 2.5753765702487117
    vertex 1596.3051019057805 -632.1999998852632 2.288911658817342
  endloop
endfacet
facet normal -0.38268343236514407 7.398866552545872e-14 0.9238795325112643
  outer loop
    vertex 1595.8703518446796 -582.2267265776215 2.1088322872628082
    vertex 1595.8703518446794 -632.1999998852632 2.108832287266656
    vertex 1596.3051019057807 -582.2267265776215 2.2889116588134946
  endloop
endfacet
facet normal -0.38268343236514407 7.398866552545872e-14 0.9238795325112643
  outer loop
    vertex 1596.3051019057805 -632.1999998852632 2.288911658817342
    vertex 1596.3051019057807 -582.2267265776215 2.2889116588134946
    vertex 1595.8703518446794 -632.1999998852632 2.108832287266656
  endloop
endfacet
facet normal -0.13052619222027734 7.73186804654445e-14 0.9914448613737807
  outer loop
    vertex 1595.4038075616938 -582.2267265776215 2.047410567172505
    vertex 1595.4038075616936 -632.1999998852632 2.047410567176353
    vertex 1595.8703518446796 -582.2267265776215 2.1088322872628082
  endloop
endfacet
facet normal -0.13052619222027734 7.73186804654445e-14 0.9914448613737807
  outer loop
    vertex 1595.8703518446794 -632.1999998852632 2.108832287266656
    vertex 1595.8703518446796 -582.2267265776215 2.1088322872628082
    vertex 1595.4038075616936 -632.1999998852632 2.047410567176353
  endloop
endfacet
facet normal 0.13052619221991932 7.526151535357534e-14 0.9914448613738278
  outer loop
    vertex 1594.937263278708 -582.2267265776215 2.108832287262646
    vertex 1594.9372632787079 -632.1999998852632 2.1088322872664937
    vertex 1595.4038075616938 -582.2267265776215 2.047410567172505
  endloop
endfacet
facet normal 0.13052619221991932 7.526151535357534e-14 0.9914448613738278
  outer loop
    vertex 1595.4038075616936 -632.1999998852632 2.047410567176353
    vertex 1595.4038075616938 -582.2267265776215 2.047410567172505
    vertex 1594.9372632787079 -632.1999998852632 2.1088322872664937
  endloop
endfacet
facet normal 0.382683432364788 6.795781020539292e-14 0.9238795325114119
  outer loop
    vertex 1594.5025132176065 -582.2267265776215 2.28891165881318
    vertex 1594.5025132176065 -632.1999998852632 2.2889116588170277
    vertex 1594.937263278708 -582.2267265776215 2.108832287262646
  endloop
endfacet
facet normal 0.382683432364788 6.795781020539292e-14 0.9238795325114119
  outer loop
    vertex 1594.9372632787079 -632.1999998852632 2.1088322872664937
    vertex 1594.937263278708 -582.2267265776215 2.108832287262646
    vertex 1594.5025132176065 -632.1999998852632 2.2889116588170277
  endloop
endfacet
facet normal 0.6087614290086459 5.6572132189324844e-14 0.7933533402912927
  outer loop
    vertex 1594.1291848765957 -582.2267265776215 2.5753765702482676
    vertex 1594.1291848765954 -632.1999998852632 2.575376570252115
    vertex 1594.5025132176065 -582.2267265776215 2.28891165881318
  endloop
endfacet
facet normal 0.6087614290086459 5.6572132189324844e-14 0.7933533402912927
  outer loop
    vertex 1594.5025132176065 -632.1999998852632 2.2889116588170277
    vertex 1594.5025132176065 -582.2267265776215 2.28891165881318
    vertex 1594.1291848765954 -632.1999998852632 2.575376570252115
  endloop
endfacet
facet normal 0.7933533402911513 4.098595303898792e-14 0.60876142900883
  outer loop
    vertex 1594.1291848765954 -632.1999998852632 2.575376570252115
    vertex 1594.1291848765957 -582.2267265776215 2.5753765702482676
    vertex 1593.84271996516 -632.1999998852632 2.9487049112630928
  endloop
endfacet
facet normal 0.7933533402911513 4.098595303898792e-14 0.60876142900883
  outer loop
    vertex 1593.8427199651605 -582.2267265776214 2.9487049112592447
    vertex 1593.84271996516 -632.1999998852632 2.9487049112630928
    vertex 1594.1291848765957 -582.2267265776215 2.5753765702482676
  endloop
endfacet
facet normal 0.9238795325111965 2.260663433479238e-14 0.38268343236530766
  outer loop
    vertex 1593.6626405936095 -632.1999998852632 3.38345497236431
    vertex 1593.84271996516 -632.1999998852632 2.9487049112630928
    vertex 1593.6626405936095 -582.2267265776214 3.3834549723604623
  endloop
endfacet
facet normal 0.9238795325111965 2.260663433479238e-14 0.38268343236530766
  outer loop
    vertex 1593.8427199651605 -582.2267265776214 2.9487049112592447
    vertex 1593.6626405936095 -582.2267265776214 3.3834549723604623
    vertex 1593.84271996516 -632.1999998852632 2.9487049112630928
  endloop
endfacet
facet normal 0.9914448613737932 1.791490827316804e-15 0.13052619222018308
  outer loop
    vertex 1593.6012188735192 -632.1999998852631 3.849999255350062
    vertex 1593.6626405936095 -632.1999998852632 3.38345497236431
    vertex 1593.6012188735194 -582.2267265776214 3.8499992553462143
  endloop
endfacet
facet normal 0.9914448613737932 1.791490827316804e-15 0.13052619222018308
  outer loop
    vertex 1593.6626405936095 -582.2267265776214 3.3834549723604623
    vertex 1593.6012188735194 -582.2267265776214 3.8499992553462143
    vertex 1593.6626405936095 -632.1999998852632 3.38345497236431
  endloop
endfacet
facet normal 0.9914448613738452 -1.8311590611885307e-14 -0.1305261922197878
  outer loop
    vertex 1593.6012188735192 -632.1999998852631 3.849999255350062
    vertex 1593.6012188735194 -582.2267265776214 3.8499992553462143
    vertex 1593.6626405936092 -632.1999998852631 4.316543538336015
  endloop
endfacet
facet normal 0.9914448613738452 -1.8311590611885307e-14 -0.1305261922197878
  outer loop
    vertex 1593.6626405936092 -582.2267265776213 4.3165435383321675
    vertex 1593.6626405936092 -632.1999998852631 4.316543538336015
    vertex 1593.6012188735194 -582.2267265776214 3.8499992553462143
  endloop
endfacet
facet normal 0.9238795325113299 -3.633261820468365e-14 -0.3826834323649856
  outer loop
    vertex 1593.8427199651599 -632.1999998852631 4.751293599437298
    vertex 1593.6626405936092 -632.1999998852631 4.316543538336015
    vertex 1593.84271996516 -582.2267265776213 4.751293599433448
  endloop
endfacet
facet normal 0.9238795325113299 -3.633261820468365e-14 -0.3826834323649856
  outer loop
    vertex 1593.6626405936092 -582.2267265776213 4.3165435383321675
    vertex 1593.84271996516 -582.2267265776213 4.751293599433448
    vertex 1593.6626405936092 -632.1999998852631 4.316543538336015
  endloop
endfacet
facet normal 0.7933533402912679 -5.3489271505851186e-14 -0.6087614290086782
  outer loop
    vertex 1594.129184876595 -632.199999885263 5.124621940448193
    vertex 1593.8427199651599 -632.1999998852631 4.751293599437298
    vertex 1594.1291848765952 -582.2267265776212 5.124621940444346
  endloop
endfacet
facet normal 0.7933533402912679 -5.3489271505851186e-14 -0.6087614290086782
  outer loop
    vertex 1593.84271996516 -582.2267265776213 4.751293599433448
    vertex 1594.1291848765952 -582.2267265776212 5.124621940444346
    vertex 1593.8427199651599 -632.1999998852631 4.751293599437298
  endloop
endfacet
facet normal 0.6087614290087837 -6.616631626274873e-14 -0.7933533402911869
  outer loop
    vertex 1594.1291848765952 -582.2267265776212 5.124621940444346
    vertex 1594.502513217606 -582.2267265776212 5.4110868518795625
    vertex 1594.129184876595 -632.199999885263 5.124621940448193
  endloop
endfacet
facet normal 0.6087614290087837 -6.616631626274873e-14 -0.7933533402911869
  outer loop
    vertex 1594.502513217606 -632.199999885263 5.411086851883411
    vertex 1594.129184876595 -632.199999885263 5.124621940448193
    vertex 1594.502513217606 -582.2267265776212 5.4110868518795625
  endloop
endfacet
facet normal 0.38268343236517793 -7.433413263152926e-14 -0.9238795325112503
  outer loop
    vertex 1594.502513217606 -582.2267265776212 5.4110868518795625
    vertex 1594.9372632787074 -582.2267265776212 5.591166223430249
    vertex 1594.502513217606 -632.199999885263 5.411086851883411
  endloop
endfacet
facet normal 0.38268343236517793 -7.433413263152926e-14 -0.9238795325112503
  outer loop
    vertex 1594.9372632787072 -632.199999885263 5.591166223434097
    vertex 1594.502513217606 -632.199999885263 5.411086851883411
    vertex 1594.9372632787074 -582.2267265776212 5.591166223430249
  endloop
endfacet
facet normal 0.13052619222064193 -7.74364926274334e-14 -0.9914448613737328
  outer loop
    vertex 1594.9372632787074 -582.2267265776212 5.591166223430249
    vertex 1595.4038075616932 -582.2267265776212 5.652587943520732
    vertex 1594.9372632787072 -632.199999885263 5.591166223434097
  endloop
endfacet
facet normal 0.13052619222064193 -7.74364926274334e-14 -0.9914448613737328
  outer loop
    vertex 1595.403807561693 -632.199999885263 5.652587943524581
    vertex 1594.9372632787072 -632.199999885263 5.591166223434097
    vertex 1595.4038075616932 -582.2267265776212 5.652587943520732
  endloop
endfacet
facet normal -0.13052619222030873 -7.537943859422767e-14 -0.9914448613737767
  outer loop
    vertex 1595.4038075616932 -582.2267265776212 5.652587943520732
    vertex 1595.870351844679 -582.2267265776212 5.591166223430411
    vertex 1595.403807561693 -632.199999885263 5.652587943524581
  endloop
endfacet
facet normal -0.13052619222030873 -7.537943859422767e-14 -0.9914448613737767
  outer loop
    vertex 1595.8703518446787 -632.199999885263 5.591166223434259
    vertex 1595.403807561693 -632.199999885263 5.652587943524581
    vertex 1595.870351844679 -582.2267265776212 5.591166223430411
  endloop
endfacet
facet normal -0.38268343236482194 -6.830327731146289e-14 -0.9238795325113978
  outer loop
    vertex 1595.870351844679 -582.2267265776212 5.591166223430411
    vertex 1596.3051019057802 -582.2267265776212 5.411086851879877
    vertex 1595.8703518446787 -632.199999885263 5.591166223434259
  endloop
endfacet
facet normal -0.38268343236482194 -6.830327731146289e-14 -0.9238795325113978
  outer loop
    vertex 1596.30510190578 -632.199999885263 5.411086851883725
    vertex 1595.8703518446787 -632.199999885263 5.591166223434259
    vertex 1596.3051019057802 -582.2267265776212 5.411086851879877
  endloop
endfacet
facet normal -0.6087614290086459 -5.657213218932483e-14 -0.7933533402912925
  outer loop
    vertex 1596.3051019057802 -582.2267265776212 5.411086851879877
    vertex 1596.678430246791 -582.2267265776213 5.12462194044479
    vertex 1596.30510190578 -632.199999885263 5.411086851883725
  endloop
endfacet
facet normal -0.6087614290086459 -5.657213218932483e-14 -0.7933533402912925
  outer loop
    vertex 1596.678430246791 -632.1999998852631 5.1246219404486375
    vertex 1596.30510190578 -632.199999885263 5.411086851883725
    vertex 1596.678430246791 -582.2267265776213 5.12462194044479
  endloop
endfacet
facet normal -0.7933533402911049 -4.0269539475035953e-14 -0.6087614290088903
  outer loop
    vertex 1596.678430246791 -632.1999998852631 5.1246219404486375
    vertex 1596.678430246791 -582.2267265776213 5.12462194044479
    vertex 1596.9648951582265 -632.1999998852631 4.751293599437661
  endloop
endfacet
facet normal -0.7933533402911049 -4.0269539475035953e-14 -0.6087614290088903
  outer loop
    vertex 1596.9648951582265 -582.2267265776213 4.751293599433812
    vertex 1596.9648951582265 -632.1999998852631 4.751293599437661
    vertex 1596.678430246791 -582.2267265776213 5.12462194044479
  endloop
endfacet
facet normal -0.9238795325111743 -2.1772388588134696e-14 -0.38268343236536145
  outer loop
    vertex 1597.1449745297768 -632.1999998852631 4.316543538336623
    vertex 1596.9648951582265 -632.1999998852631 4.751293599437661
    vertex 1597.144974529777 -582.2267265776213 4.316543538332775
  endloop
endfacet
facet normal -0.9238795325111743 -2.1772388588134696e-14 -0.38268343236536145
  outer loop
    vertex 1596.9648951582265 -582.2267265776213 4.751293599433812
    vertex 1597.144974529777 -582.2267265776213 4.316543538332775
    vertex 1596.9648951582265 -632.1999998852631 4.751293599437661
  endloop
endfacet
facet normal -0.9914448613737873 -2.686562747072718e-15 -0.13052619222022768
  outer loop
    vertex 1597.2063962498673 -632.1999998852632 3.8499992553506908
    vertex 1597.1449745297768 -632.1999998852631 4.316543538336623
    vertex 1597.2063962498676 -582.2267265776214 3.849999255346843
  endloop
endfacet
facet normal -0.9914448613737873 -2.686562747072718e-15 -0.13052619222022768
  outer loop
    vertex 1597.144974529777 -582.2267265776213 4.316543538332775
    vertex 1597.2063962498676 -582.2267265776214 3.849999255346843
    vertex 1597.1449745297768 -632.1999998852631 4.316543538336623
  endloop
endfacet
facet normal -0.9914448613738263 1.7416463152809043e-14 0.13052619221993172
  outer loop
    vertex 1597.144974529777 -632.1999998852632 3.383454972364917
    vertex 1597.2063962498673 -632.1999998852632 3.8499992553506908
    vertex 1597.1449745297773 -582.2267265776214 3.3834549723610694
  endloop
endfacet
facet normal -0.9914448613738263 1.7416463152809043e-14 0.13052619221993172
  outer loop
    vertex 1597.2063962498676 -582.2267265776214 3.849999255346843
    vertex 1597.1449745297773 -582.2267265776214 3.3834549723610694
    vertex 1597.2063962498673 -632.1999998852632 3.8499992553506908
  endloop
endfacet
facet normal -0.9238795325113639 3.7166795961117024e-14 0.3826834323649038
  outer loop
    vertex 1596.9648951582265 -632.1999998852632 2.9487049112636368
    vertex 1597.144974529777 -632.1999998852632 3.383454972364917
    vertex 1596.964895158227 -582.2267265776215 2.948704911259789
  endloop
endfacet
facet normal -0.9238795325113639 3.7166795961117024e-14 0.3826834323649038
  outer loop
    vertex 1597.1449745297773 -582.2267265776214 3.3834549723610694
    vertex 1596.964895158227 -582.2267265776215 2.948704911259789
    vertex 1597.144974529777 -632.1999998852632 3.383454972364917
  endloop
endfacet
endsolid Shaker
